<svg width="429" height="269" viewBox="0 0 429 269" fill="none" xmlns="http://www.w3.org/2000/svg">
<path d="M223.109 202.519H160.903L161.062 202.511C155.541 202.424 151.091 197.929 151.091 192.389C151.091 186.849 155.541 182.355 161.062 182.268L160.903 182.26C166.497 182.26 171.033 177.727 171.033 172.132C171.033 166.537 166.497 162.004 160.903 162.004H150.137L150.295 161.996C144.774 161.911 140.325 157.416 140.325 151.875C140.325 146.567 144.414 142.229 149.61 141.8H183.985C189.579 141.8 194.113 137.264 194.113 131.671C194.113 126.077 189.579 121.543 183.985 121.543H149.611C144.414 121.113 140.325 116.775 140.325 111.467C140.325 105.925 144.774 101.432 150.295 101.345L150.137 101.337H79.3526L79.1939 101.345C84.7139 101.432 89.1646 105.925 89.1646 111.467C89.1646 116.775 85.0753 121.113 79.878 121.543H49.4646C43.8713 121.543 39.3366 126.077 39.3366 131.671C39.3366 137.264 43.8713 141.8 49.4646 141.8H79.878C85.0766 142.229 89.1646 146.567 89.1646 151.875C89.1646 157.416 84.7139 161.911 79.1939 161.996L79.3526 162.004H68.5859H22.2686C16.6753 162.004 12.1406 166.537 12.1406 172.132C12.1406 177.727 16.6753 182.26 22.2686 182.26H68.5859L68.4273 182.268C73.9473 182.355 78.3979 186.849 78.3979 192.389C78.3979 197.929 73.9473 202.424 68.4273 202.511L68.5859 202.519C62.9913 202.519 58.4566 207.052 58.4566 212.645C58.4566 218.24 62.9913 222.775 68.5859 222.775H130.791H160.903H223.109C228.703 222.775 233.238 218.24 233.238 212.645C233.238 207.052 228.703 202.519 223.109 202.519" fill="#E9ECEF"/>
<path d="M22.2686 60.7707H68.5859L68.4273 60.7787C73.9473 60.8641 78.3979 65.3587 78.3979 70.9001C78.3979 76.4401 73.9473 80.9347 68.4273 81.0201L68.5859 81.0281C62.9913 81.0281 58.4566 85.5627 58.4566 91.1561C58.4566 96.7507 62.9913 101.285 68.5859 101.285H130.791H160.903H223.109C228.703 101.285 233.238 96.7507 233.238 91.1561C233.238 85.5627 228.703 81.0281 223.109 81.0281H160.903L161.062 81.0201C155.541 80.9347 151.091 76.4401 151.091 70.9001C151.091 65.3587 155.541 60.8641 161.062 60.7787L160.903 60.7707C166.497 60.7707 171.033 56.2361 171.033 50.6427C171.033 45.0494 166.497 40.5134 160.903 40.5134H150.137L150.295 40.5054C144.774 40.4201 140.325 35.9254 140.325 30.3854C140.325 24.8454 144.774 20.3507 150.295 20.2654L150.137 20.2561H160.903C166.497 20.2561 171.033 15.7227 171.033 10.1281C171.033 4.53475 166.497 5.48652e-05 160.903 5.48652e-05H68.5859C62.9913 5.48652e-05 58.4566 4.53475 58.4566 10.1281C58.4566 15.7227 62.9913 20.2561 68.5859 20.2561H79.3526L79.1939 20.2654C84.7139 20.3507 89.1646 24.8454 89.1646 30.3854C89.1646 35.9254 84.7139 40.4201 79.1939 40.5054L79.3526 40.5134H68.5859H22.2686C16.6753 40.5134 12.1406 45.0494 12.1406 50.6427C12.1406 56.2361 16.6753 60.7707 22.2686 60.7707" fill="#E9ECEF"/>
<path d="M183.984 243.032H149.609C144.413 242.601 140.324 238.264 140.324 232.956C140.324 227.416 144.773 222.92 150.295 222.836L150.136 222.828H79.3519L79.1933 222.836C84.7133 222.92 89.1639 227.416 89.1639 232.956C89.1639 238.264 85.0759 242.601 79.8773 243.032H49.4639C43.8706 243.032 39.3359 247.567 39.3359 253.16C39.3359 258.753 43.8706 263.289 49.4639 263.289H91.6666H141.781H183.984C189.579 263.289 194.112 258.753 194.112 253.16C194.112 247.567 189.579 243.032 183.984 243.032Z" fill="#E9ECEF"/>
<path d="M270.697 77.1373C269.897 78.9626 264.381 82.56 264.381 82.56C264.381 82.56 263.285 76.0666 264.085 74.2413C264.884 72.416 267.012 71.584 268.837 72.3827C270.664 73.1827 271.496 75.3106 270.697 77.1373Z" fill="#6F42C1"/>
<path d="M265.366 74.2947C266.012 76.18 264.38 82.56 264.38 82.56C264.38 82.56 259.182 78.5173 258.537 76.6306C257.892 74.7453 258.898 72.6933 260.784 72.048C262.669 71.4027 264.721 72.4093 265.366 74.2947" fill="#AB7EEB"/>
<path d="M207.769 24.9613C206.971 26.788 201.456 30.3853 201.456 30.3853C201.456 30.3853 200.36 23.892 201.159 22.0666C201.959 20.2413 204.087 19.4093 205.912 20.208C207.737 21.008 208.569 23.136 207.769 24.9613Z" fill="#6F42C1"/>
<path d="M202.44 22.12C203.087 24.0053 201.455 30.3853 201.455 30.3853C201.455 30.3853 196.257 26.3413 195.611 24.456C194.967 22.5707 195.972 20.5186 197.859 19.8733C199.744 19.228 201.796 20.2347 202.44 22.12" fill="#AB7EEB"/>
<path d="M28.753 138.187C27.953 140.012 22.4384 143.611 22.4384 143.611C22.4384 143.611 21.3424 137.117 22.1411 135.292C22.9411 133.467 25.069 132.635 26.8944 133.433C28.7197 134.233 29.5517 136.361 28.753 138.187Z" fill="#AB7EEB"/>
<path d="M23.4251 135.345C24.0691 137.231 22.4385 143.611 22.4385 143.611C22.4385 143.611 17.2411 139.567 16.5958 137.681C15.9505 135.796 16.9558 133.744 18.8425 133.099C20.7278 132.453 22.7798 133.459 23.4251 135.345" fill="#6F42C1"/>
<path d="M42.2874 229.516C41.4888 231.341 35.9741 234.939 35.9741 234.939C35.9741 234.939 34.8768 228.447 35.6768 226.621C36.4768 224.795 38.6048 223.964 40.4301 224.763C42.2554 225.563 43.0874 227.691 42.2874 229.516Z" fill="#6F42C1"/>
<path d="M36.9596 226.675C37.605 228.56 35.9743 234.939 35.9743 234.939C35.9743 234.939 30.7756 230.896 30.1303 229.011C29.4863 227.125 30.4916 225.073 32.377 224.427C34.2636 223.783 36.3156 224.788 36.9596 226.675" fill="#AB7EEB"/>
<path d="M262.309 20.2106C261.781 21.4133 258.151 23.7813 258.151 23.7813C258.151 23.7813 257.429 19.5066 257.956 18.3053C258.481 17.1026 259.883 16.5546 261.085 17.0813C262.287 17.608 262.835 19.008 262.309 20.2106" fill="#AB7EEB"/>
<path d="M258.803 18.34C259.227 19.5813 258.152 23.7813 258.152 23.7813C258.152 23.7813 254.731 21.1186 254.307 19.8773C253.881 18.636 254.543 17.2853 255.785 16.8613C257.027 16.436 258.377 17.0986 258.803 18.34Z" fill="#6F42C1"/>
<path d="M243.687 53.9254C243.16 55.1267 239.531 57.496 239.531 57.496C239.531 57.496 238.808 53.2214 239.335 52.0187C239.861 50.8174 241.261 50.2694 242.464 50.796C243.665 51.3227 244.213 52.724 243.687 53.9254Z" fill="#AB7EEB"/>
<path d="M240.178 52.0547C240.603 53.296 239.53 57.496 239.53 57.496C239.53 57.496 236.107 54.8347 235.683 53.592C235.258 52.3507 235.921 51 237.161 50.576C238.404 50.1507 239.754 50.812 240.178 52.0547Z" fill="#6F42C1"/>
<path d="M43.302 79.5627C42.7767 80.7654 39.146 83.1334 39.146 83.1334C39.146 83.1334 38.4233 78.8587 38.95 77.6574C39.4767 76.4547 40.8767 75.908 42.0794 76.4334C43.2807 76.96 43.8287 78.3614 43.302 79.5627Z" fill="#AB7EEB"/>
<path d="M39.7934 77.6921C40.2187 78.9334 39.1454 83.1334 39.1454 83.1334C39.1454 83.1334 35.7227 80.472 35.2987 79.2307C34.8734 77.9894 35.5361 76.6387 36.7774 76.2134C38.0187 75.788 39.3694 76.4507 39.7934 77.6921Z" fill="#6F42C1"/>
<path d="M32.5854 25.0987C32.0601 26.3014 28.4281 28.6694 28.4281 28.6694C28.4281 28.6694 27.7068 24.3947 28.2335 23.1934C28.7588 21.9907 30.1601 21.444 31.3628 21.9694C32.5641 22.496 33.1121 23.8974 32.5854 25.0987Z" fill="#6F42C1"/>
<path d="M29.0799 23.2281C29.5039 24.4694 28.4292 28.6694 28.4292 28.6694C28.4292 28.6694 25.0079 26.0067 24.5839 24.7654C24.1585 23.524 24.8212 22.1734 26.0626 21.7494C27.3039 21.3241 28.6546 21.9867 29.0799 23.2281Z" fill="#AB7EEB"/>
<path d="M58.2587 196.087C57.732 197.289 54.1 199.657 54.1 199.657C54.1 199.657 53.3787 195.383 53.9053 194.181C54.432 192.979 55.8333 192.431 57.0347 192.957C58.236 193.484 58.784 194.885 58.2587 196.087" fill="#AB7EEB"/>
<path d="M54.7498 194.216C55.1738 195.457 54.0991 199.657 54.0991 199.657C54.0991 199.657 50.6778 196.996 50.2538 195.753C49.8285 194.513 50.4911 193.161 51.7325 192.737C52.9738 192.312 54.3245 192.975 54.7498 194.216Z" fill="#6F42C1"/>
<path d="M306.939 159.475C306.414 160.677 302.782 163.047 302.782 163.047C302.782 163.047 302.06 158.772 302.587 157.571C303.112 156.367 304.514 155.82 305.716 156.347C306.919 156.872 307.466 158.273 306.939 159.475Z" fill="#AB7EEB"/>
<path d="M303.431 157.605C303.856 158.847 302.781 163.047 302.781 163.047C302.781 163.047 299.36 160.384 298.935 159.143C298.511 157.901 299.173 156.551 300.415 156.127C301.656 155.701 303.007 156.364 303.431 157.605Z" fill="#AB7EEB"/>
<path d="M232.649 220.353C232.087 220.144 231.695 220.007 231.695 220.007C231.695 220.007 230.325 219.521 228.913 219.103C227.503 218.681 226.053 218.328 226.053 218.328C226.053 218.328 227.465 217.853 228.921 217.448C230.37 217.037 231.861 216.7 231.861 216.7C231.861 216.7 232.99 216.44 234.289 216.196C236.682 209.136 237.301 201.475 235.89 193.936C235.222 193.907 234.482 193.868 233.745 193.824C231.382 193.684 229.042 193.46 229.042 193.46C229.042 193.46 226.701 193.243 224.383 192.941C222.063 192.645 219.77 192.269 219.77 192.269C219.77 192.269 222.051 191.817 224.301 191.288C226.551 190.763 228.769 190.161 228.769 190.161C228.769 190.161 230.989 189.564 233.171 188.891C233.622 188.753 234.07 188.612 234.499 188.475C233.863 186.511 233.089 184.564 232.154 182.653C229.167 176.539 224.949 171.432 219.951 167.468C219.078 167.948 217.871 168.636 216.686 169.389C214.451 170.792 212.319 172.416 212.319 172.416C212.319 172.416 210.185 174.025 208.174 175.848C206.158 177.655 204.289 179.667 204.289 179.667C204.289 179.667 205.47 177.192 206.891 174.803C208.297 172.409 209.935 170.12 209.935 170.12C209.935 170.12 211.558 167.825 213.409 165.659C213.898 165.079 214.401 164.512 214.878 163.988C209.758 160.981 204.071 159.035 198.183 158.263L197.023 159.995L194.663 163.519L193.771 159.372L193.454 157.899C189.915 157.817 186.338 158.156 182.801 158.955L220.514 236.152C225.802 231.812 229.905 226.377 232.649 220.353" fill="#56C49A"/>
<path d="M200.592 236.013C200.772 235.441 200.906 235.048 200.906 235.048C200.906 235.048 201.366 233.669 201.903 232.297C202.436 230.925 203.048 229.565 203.048 229.565C203.048 229.565 201.807 230.388 200.592 231.287C199.378 232.179 198.196 233.145 198.196 233.145C198.196 233.145 197.296 233.877 196.306 234.752C189.264 232.3 182.843 228.08 177.762 222.332C178.15 221.788 178.575 221.181 178.992 220.572C180.334 218.623 181.595 216.64 181.595 216.64C181.595 216.64 182.864 214.657 184.05 212.644C185.244 210.633 186.356 208.592 186.356 208.592C186.356 208.592 184.596 210.115 182.798 211.563C180.999 213.017 179.162 214.396 179.162 214.396C179.162 214.396 177.326 215.779 175.455 217.087C175.068 217.359 174.682 217.625 174.311 217.88C173.151 216.169 172.092 214.363 171.159 212.452C168.172 206.337 166.736 199.871 166.682 193.492C167.596 193.099 168.88 192.569 170.203 192.096C172.684 191.197 175.275 190.513 175.275 190.513C175.275 190.513 177.858 189.817 180.53 189.353C183.195 188.873 185.931 188.636 185.931 188.636C185.931 188.636 183.254 188.045 180.494 187.697C177.742 187.335 174.928 187.221 174.928 187.221C174.928 187.221 172.122 187.091 169.275 187.219C168.518 187.249 167.759 187.297 167.054 187.352C167.831 181.464 169.79 175.783 172.802 170.663L174.879 170.812L179.108 171.117L176.387 167.865L175.419 166.708C177.531 163.867 179.996 161.255 182.8 158.955L220.514 236.152C213.84 237.656 207.032 237.551 200.592 236.013" fill="#43BE8D"/>
<path d="M291.884 168.535C288.426 171.832 284.544 174.493 280.144 177.288C281.073 176.3 287.177 169.892 288.892 167.349C292.138 162.535 293.833 156.793 293.833 150.997C293.833 150.821 293.657 150.64 293.474 150.743C291.577 151.796 285.276 155.489 285.276 155.489C285.276 155.489 290.238 151.299 291.486 150.112C292.721 148.939 294.842 136.219 294.25 131.464C294.221 131.228 293.926 131.207 293.794 131.36C289.622 136.144 285.268 140.763 280.742 145.212C284.304 139.563 287.993 133.959 291.314 128.173C292.977 125.281 293.445 112.173 293.009 108.771C292.98 108.54 292.688 108.476 292.556 108.669C290.23 112.075 287.486 115.14 284.372 117.829C288.934 109.591 292.113 99.3814 286.84 90.7121C286.746 90.5588 286.52 90.4987 286.402 90.6694C285.22 92.4041 283.892 94.0041 282.408 95.4801C282.708 93.2174 283.013 90.9548 283.31 88.6921C283.542 86.9214 283.516 85.6774 282.322 84.2548C279.465 80.8441 276.406 77.5814 273.426 74.2707L258.154 232.959C267.365 232.325 270.936 221.793 270.936 221.793L269.6 221.391C272.86 219.419 275.944 217.304 277.881 213.916C279.765 210.62 280.572 206.849 281.345 203.172C281.37 203.045 281.242 202.896 281.116 202.895C280.162 202.888 275.482 206.373 274.53 206.365C276.48 205.383 282.176 200.735 283.368 198.872C284.512 197.083 284.83 194.764 283.677 192.909C283.592 192.768 283.426 192.709 283.285 192.819C279.814 195.516 276.298 198.203 272.314 200.076C277.581 195.524 285.75 189.124 286.154 187.961L292.226 168.747C292.293 168.537 292.041 168.385 291.884 168.535" fill="#58C59B"/>
<path d="M237.331 163.285C240.096 167.181 243.4 170.533 247.188 174.116C246.464 172.969 241.695 165.516 240.495 162.692C238.227 157.347 237.657 151.387 238.763 145.697C238.797 145.525 239.004 145.38 239.164 145.516C240.825 146.912 246.307 151.74 246.307 151.74C246.307 151.74 242.235 146.679 241.235 145.276C240.247 143.889 240.591 130.999 242.079 126.444C242.152 126.217 242.445 126.252 242.547 126.427C245.729 131.92 249.123 137.284 252.716 142.516C250.299 136.291 247.745 130.085 245.587 123.773C244.508 120.617 246.547 107.66 247.625 104.404C247.699 104.183 247.996 104.176 248.089 104.389C249.723 108.176 251.831 111.708 254.375 114.943C251.468 105.985 250.295 95.3574 257.125 87.8521C257.247 87.7201 257.48 87.7028 257.561 87.8948C258.392 89.8228 259.389 91.6454 260.567 93.3774C260.703 91.0988 260.835 88.8201 260.975 86.5427C261.084 84.7614 261.348 83.5441 262.789 82.3747C266.247 79.5721 269.871 76.9521 273.427 74.2707L258.155 232.959C249.236 230.581 247.739 219.561 247.739 219.561L249.128 219.42C246.304 216.864 243.679 214.199 242.424 210.503C241.203 206.908 241.131 203.053 241.072 199.296C241.071 199.167 241.225 199.044 241.349 199.068C242.287 199.243 246.216 203.557 247.152 203.732C245.427 202.395 240.721 196.745 239.907 194.691C239.124 192.715 239.255 190.379 240.74 188.776C240.852 188.655 241.024 188.629 241.143 188.763C244.036 192.072 246.973 195.381 250.528 197.979C246.227 192.507 239.427 184.667 239.252 183.447L236.955 163.427C236.929 163.209 237.204 163.108 237.331 163.285" fill="#40BD8C"/>
<path d="M312.028 196.225C308.401 197.843 304.62 198.844 300.394 199.805C301.397 199.291 307.963 195.975 310.015 194.463C313.898 191.597 316.826 187.575 318.442 183.036C318.49 182.899 318.405 182.707 318.232 182.736C316.453 183.032 310.49 184.169 310.49 184.169C310.49 184.169 315.544 182.269 316.853 181.689C318.148 181.115 323.353 171.747 324.214 167.859C324.258 167.665 324.034 167.567 323.886 167.648C319.286 170.232 314.59 172.635 309.805 174.857C314.167 171.425 318.62 168.068 322.834 164.464C324.94 162.663 328.962 152.529 329.569 149.744C329.61 149.555 329.399 149.423 329.243 149.537C326.473 151.556 323.47 153.191 320.281 154.428C326.15 149.251 331.485 142.141 329.771 133.884C329.742 133.737 329.582 133.627 329.442 133.729C328.033 134.757 326.546 135.64 324.973 136.381C325.84 134.693 326.708 133.007 327.573 131.317C328.249 129.997 328.574 129.015 328.037 127.568C326.75 124.101 325.263 120.693 323.854 117.272L267.658 237.265C275.045 239.337 280.778 232.087 280.778 232.087L279.843 231.399C282.945 230.763 285.95 229.967 288.413 227.853C290.807 225.799 292.488 223.071 294.12 220.408L294.017 220.127C293.273 219.856 288.637 221.28 287.893 221.009C289.693 220.783 295.449 218.731 296.901 217.604C298.297 216.523 299.193 214.796 298.807 213.021C298.778 212.888 298.666 212.796 298.525 212.843C295.054 213.985 291.553 215.109 287.912 215.467C293.304 213.368 301.484 210.636 302.126 209.837L312.237 196.485C312.346 196.341 312.193 196.151 312.028 196.225" fill="#58C59B"/>
<path d="M270.775 176.907C271.855 180.728 273.507 184.273 275.474 188.135C275.227 187.033 273.57 179.868 273.419 177.323C273.134 172.507 274.348 167.681 276.8 163.533C276.874 163.409 277.076 163.353 277.164 163.504C278.076 165.06 281.022 170.368 281.022 170.368C281.022 170.368 279.244 165.271 278.852 163.893C278.466 162.531 282.328 152.533 284.763 149.383C284.883 149.227 285.103 149.336 285.135 149.501C286.095 154.688 287.258 159.835 288.612 164.932C288.455 159.384 288.184 153.813 288.255 148.269C288.29 145.499 293.498 135.921 295.251 133.672C295.37 133.52 295.604 133.597 295.618 133.789C295.842 137.211 296.507 140.564 297.598 143.805C297.818 135.981 299.863 127.333 307.303 123.361C307.435 123.291 307.622 123.343 307.634 123.516C307.746 125.256 308.019 126.963 308.458 128.647C309.199 126.9 309.938 125.153 310.683 123.408C311.263 122.044 311.811 121.164 313.264 120.651C316.754 119.42 320.322 118.38 323.854 117.272L267.658 237.265C261.336 232.917 263.236 223.871 263.236 223.871L264.363 224.148C262.866 221.359 261.552 218.54 261.599 215.296C261.646 212.141 262.663 209.103 263.666 206.145L263.947 206.044C264.631 206.441 266.506 210.916 267.191 211.313C266.211 209.785 264.102 204.051 264.036 202.215C263.976 200.449 264.727 198.656 266.338 197.815C266.459 197.753 266.6 197.779 266.656 197.919C267.999 201.315 269.378 204.725 271.435 207.751C269.594 202.265 266.456 194.232 266.658 193.228L270.442 176.912C270.482 176.736 270.726 176.732 270.775 176.907" fill="#40BD8C"/>
<path d="M248.564 140.823C247.449 141.087 245.417 140.903 242.178 141.396C242.916 140.949 246.245 139.216 246.632 138.449C247.646 136.857 247.356 133.759 246.301 129.771L246.052 129.444C245.369 129.236 241.592 129.645 241.466 129.74C241.541 129.693 244.29 128.519 244.738 128.248C245.258 127.988 244.041 120.192 242.71 116.933C242.645 116.773 242.446 116.695 242.389 116.763C240.617 118.925 238.286 120.912 235.253 123.167C237.146 120.192 238.829 117.395 239.986 114.315C240.56 112.773 238.086 104.661 237.001 102.657C236.928 102.519 236.693 102.481 236.634 102.597C235.616 104.641 234.149 106.392 232.125 108.013C234.068 103.413 234.234 96.9199 228.036 92.9719L227.672 93.0199C227.096 94.1452 226.358 95.2066 225.441 96.2266C225.196 94.9893 224.949 93.7492 224.698 92.5092C224.501 91.5399 224.204 90.8866 222.925 90.3866C219.854 89.1919 216.708 88.2346 213.705 87.2186C219.644 115.176 225.581 143.133 231.52 171.091C242.716 168.533 249.312 159.597 249.093 157.679C249.086 157.612 244.862 156.945 243.805 156.8C245.685 156.587 249.377 156.432 249.624 156.077C250.013 155.617 249.752 154.243 248.553 152.396C248.462 152.259 248.332 152.132 248.253 152.128C246.317 152.035 243.752 152.309 240.022 152.799C244.832 150.669 249.417 150.956 249.161 150.58C249.108 147.541 248.961 144.427 248.772 141.172L248.564 140.823" fill="#56C49A"/>
<path d="M203.644 150.364C204.768 150.151 206.551 149.157 209.71 148.292C208.856 148.183 205.108 147.953 204.444 147.409C202.871 146.367 201.876 143.417 201.219 139.345C201.202 139.223 201.24 138.988 201.314 138.945C201.854 138.477 205.471 137.317 205.626 137.353C205.536 137.34 202.548 137.384 202.028 137.319C201.447 137.292 199.391 129.675 199.282 126.157C199.278 125.984 199.426 125.831 199.507 125.871C202.004 127.125 204.942 127.993 208.631 128.82C205.691 126.872 203.016 125.001 200.707 122.657C199.556 121.481 198.52 113.064 198.698 110.792C198.707 110.636 198.908 110.507 199.007 110.588C200.768 112.041 202.819 113.047 205.328 113.704C201.684 110.291 198.892 104.427 202.951 98.2985L203.304 98.1946C204.287 98.9892 205.392 99.6586 206.647 100.219C206.368 98.9879 206.088 97.7546 205.814 96.5199C205.599 95.5559 205.606 94.8372 206.572 93.8599C208.891 91.5199 211.375 89.3666 213.706 87.2186C219.644 115.176 225.582 143.133 231.52 171.091C220.25 173.307 210.592 167.82 210.011 165.979C209.991 165.916 213.579 163.588 214.484 163.027C212.682 163.597 209.246 164.956 208.875 164.731C208.331 164.469 208.014 163.107 208.358 160.932C208.384 160.769 208.452 160.601 208.523 160.567C210.254 159.696 212.708 158.903 216.315 157.833C211.055 157.843 206.983 159.968 207.063 159.52C205.876 156.723 204.747 153.817 203.595 150.767L203.644 150.364" fill="#43BE8D"/>
<path d="M2.33502 132.639L0.335017 134.567C-0.372983 135.249 0.15634 135.752 0.857673 135.075L2.84169 133.163C3.54169 132.487 3.04302 131.955 2.33502 132.639Z" fill="#6F42C1"/>
<path d="M9.02371 126.741L6.87973 128.507C6.12107 129.132 6.59837 129.683 7.35171 129.063L9.47973 127.312C10.2304 126.693 9.78505 126.116 9.02371 126.741" fill="#6F42C1"/>
<path d="M16.217 121.471L13.9477 123.071C13.1451 123.637 13.5704 124.231 14.3664 123.668L16.6184 122.079C17.4264 121.537 17.0344 120.921 16.217 121.471" fill="#6F42C1"/>
<path d="M23.8748 116.905L22.6442 117.545L21.4548 118.263C20.6148 118.772 20.9868 119.4 21.8202 118.895L23.0002 118.181L24.2242 117.547C25.0882 117.097 24.7495 116.452 23.8748 116.905" fill="#6F42C1"/>
<path d="M31.8799 112.98L29.3426 114.105C28.4492 114.513 28.7679 115.169 29.6546 114.764L32.1759 113.647C33.0666 113.253 32.7799 112.583 31.8799 112.98Z" fill="#6F42C1"/>
<path d="M40.1481 109.653L37.5495 110.628C36.6295 110.972 36.8975 111.651 37.8108 111.308L40.3935 110.34C41.3055 109.999 41.0681 109.308 40.1481 109.653" fill="#6F42C1"/>
<path d="M48.6353 106.933C47.7353 107.152 46.866 107.471 45.9793 107.733C45.042 108.028 45.2593 108.724 46.1899 108.432C47.0713 108.169 47.9366 107.853 48.8313 107.636C49.7753 107.393 49.5873 106.689 48.6353 106.933Z" fill="#6F42C1"/>
<path d="M57.3025 104.859L54.5838 105.412C53.6305 105.648 53.7999 106.359 54.7465 106.123L57.4505 105.572C58.4038 105.379 58.2652 104.661 57.3025 104.859Z" fill="#6F42C1"/>
<path d="M66.0826 103.336L63.3399 103.756C62.3692 103.905 62.4879 104.625 63.4532 104.477L66.1799 104.059C67.1426 103.912 67.0546 103.188 66.0826 103.336" fill="#6F42C1"/>
<path d="M74.9526 102.463C74.0286 102.523 73.1019 102.54 72.1832 102.656C71.2072 102.757 71.2766 103.484 72.2472 103.383C73.1592 103.267 74.0806 103.249 74.9979 103.191C75.9699 103.136 75.9339 102.408 74.9526 102.463" fill="#6F42C1"/>
<path d="M83.8622 102.219L81.0862 102.235C80.1035 102.24 80.1182 102.971 81.0928 102.964L83.8515 102.948C84.8235 102.955 84.8462 102.225 83.8622 102.219Z" fill="#6F42C1"/>
<path d="M92.7653 102.787L89.9999 102.504C89.0213 102.417 88.9733 103.144 89.9426 103.231L92.6826 103.512C93.6492 103.611 93.7453 102.888 92.7653 102.787" fill="#6F42C1"/>
<path d="M101.573 104.191C100.669 103.992 99.7572 103.832 98.8478 103.652C97.8785 103.489 97.7585 104.209 98.7185 104.371C99.6198 104.548 100.525 104.707 101.422 104.904C102.37 105.113 102.536 104.403 101.573 104.191" fill="#6F42C1"/>
<path d="M110.188 106.533C109.307 106.245 108.425 105.957 107.536 105.693C106.589 105.424 106.393 106.128 107.329 106.392C108.208 106.655 109.081 106.939 109.953 107.224C110.867 107.551 111.117 106.865 110.188 106.533" fill="#6F42C1"/>
<path d="M118.413 110.027C117.577 109.623 116.758 109.18 115.909 108.808C115.008 108.405 114.718 109.076 115.605 109.471C116.444 109.839 117.25 110.275 118.074 110.673C118.922 111.141 119.28 110.504 118.413 110.027" fill="#6F42C1"/>
<path d="M125.916 114.901C125.167 114.349 124.457 113.744 123.679 113.235C122.864 112.675 122.461 113.284 123.259 113.832C124.027 114.332 124.723 114.928 125.459 115.471C126.203 116.088 126.677 115.535 125.916 114.901" fill="#6F42C1"/>
<path d="M132.193 121.288C131.604 120.565 131.052 119.813 130.405 119.141C129.737 118.408 129.21 118.913 129.862 119.628C130.496 120.285 131.037 121.024 131.613 121.732C132.198 122.497 132.794 122.077 132.193 121.288" fill="#6F42C1"/>
<path d="M136.71 129.02C136.341 128.164 135.962 127.312 135.51 126.497C135.05 125.617 134.417 125.98 134.863 126.836C135.307 127.635 135.678 128.468 136.038 129.307C136.426 130.188 137.11 129.929 136.71 129.02Z" fill="#6F42C1"/>
<path d="M139.064 137.664L138.882 136.276L138.595 134.905C138.392 133.932 137.686 134.117 137.882 135.06L138.162 136.397L138.34 137.753C138.466 138.705 139.194 138.652 139.064 137.664Z" fill="#6F42C1"/>
<path d="M138.675 146.62L138.96 145.247L139.127 143.852C139.245 142.863 138.516 142.821 138.401 143.776L138.24 145.129L137.963 146.463C137.764 147.4 138.468 147.599 138.675 146.62" fill="#6F42C1"/>
<path d="M135.022 154.808C135.607 154.072 136.078 153.259 136.536 152.439C137.032 151.568 136.37 151.26 135.895 152.089C135.454 152.88 135 153.665 134.432 154.376C133.87 155.147 134.428 155.616 135.022 154.808" fill="#6F42C1"/>
<path d="M128.419 160.875C129.24 160.42 129.964 159.821 130.719 159.268C131.126 158.98 131.18 158.659 131.064 158.523C130.944 158.381 130.66 158.42 130.266 158.697C129.534 159.232 128.832 159.815 128.035 160.253C127.216 160.752 127.564 161.393 128.419 160.875" fill="#6F42C1"/>
<path d="M120.039 164.071C120.978 163.977 121.867 163.657 122.78 163.447C123.73 163.139 123.479 162.452 122.57 162.749C121.687 162.951 120.826 163.263 119.92 163.351C118.978 163.491 119.046 164.217 120.039 164.071" fill="#6F42C1"/>
<path d="M111.095 163.42C111.97 163.791 112.912 163.908 113.83 164.121C114.823 164.261 114.887 163.533 113.947 163.401C113.07 163.195 112.164 163.087 111.331 162.729C110.439 162.412 110.144 163.081 111.095 163.42" fill="#6F42C1"/>
<path d="M103.696 158.349C104.294 159.083 104.959 159.756 105.675 160.369C106.455 161.009 106.883 160.417 106.148 159.815C105.464 159.229 104.83 158.585 104.262 157.889C103.682 157.144 103.072 157.549 103.696 158.349" fill="#6F42C1"/>
<path d="M100.734 149.905C100.746 150.38 100.723 150.857 100.767 151.329L100.968 152.741C101.232 153.725 101.928 153.497 101.682 152.593L101.494 151.267C101.452 150.821 101.476 150.372 101.463 149.925C101.439 149.453 101.34 149.203 101.143 149.184C100.978 149.168 100.711 149.397 100.734 149.905Z" fill="#6F42C1"/>
<path d="M103.759 141.464C103.469 141.833 103.23 142.24 102.989 142.644C102.741 143.045 102.498 143.448 102.309 143.881C101.873 144.791 102.551 145.061 102.962 144.205C103.142 143.791 103.375 143.405 103.614 143.021C103.845 142.633 104.073 142.243 104.355 141.887C104.918 141.12 104.355 140.653 103.759 141.464" fill="#6F42C1"/>
<path d="M110.47 135.505C109.636 135.941 108.869 136.485 108.097 137.02C107.318 137.652 107.793 138.208 108.534 137.604C109.278 137.089 110.018 136.564 110.821 136.144C111.653 135.681 111.348 135.017 110.47 135.505" fill="#6F42C1"/>
<path d="M119.082 132.992C118.154 133.103 117.226 133.216 116.31 133.412C115.333 133.609 115.514 134.317 116.456 134.128C117.345 133.936 118.249 133.827 119.152 133.719C120.11 133.653 120.077 132.924 119.082 132.992Z" fill="#6F42C1"/>
<path d="M128.033 133.364C127.117 133.209 126.192 133.108 125.265 133.017C124.277 132.939 124.236 133.667 125.2 133.744C126.108 133.833 127.019 133.932 127.921 134.085C128.876 134.236 129.011 133.519 128.033 133.364Z" fill="#6F42C1"/>
<path d="M136.73 135.388C135.843 135.125 134.95 134.88 134.054 134.641C133.101 134.399 132.926 135.108 133.87 135.348C134.758 135.584 135.643 135.827 136.525 136.088C137.458 136.364 137.674 135.667 136.73 135.388" fill="#6F42C1"/>
<path d="M145.206 138.113L142.58 137.236C141.649 136.931 141.422 137.624 142.352 137.929L144.973 138.804C145.896 139.12 146.136 138.431 145.206 138.113Z" fill="#6F42C1"/>
<path d="M153.592 141.087L150.992 140.136C150.069 139.807 149.822 140.493 150.745 140.821L153.34 141.772C154.256 142.111 154.513 141.428 153.592 141.087Z" fill="#6F42C1"/>
<path d="M161.894 144.291L159.322 143.264C158.409 142.912 158.144 143.592 159.056 143.944L161.622 144.968C162.53 145.331 162.806 144.655 161.894 144.291Z" fill="#6F42C1"/>
<path d="M170.107 147.721L167.561 146.629C166.66 146.243 166.376 146.915 167.276 147.3L169.816 148.391C170.712 148.776 171.008 148.109 170.107 147.721Z" fill="#6F42C1"/>
<path d="M178.221 151.376L175.704 150.219C174.816 149.809 174.513 150.475 175.401 150.881L177.912 152.037C178.794 152.456 179.107 151.797 178.221 151.376" fill="#6F42C1"/>
<path d="M186.227 155.259L183.746 154.029C182.867 153.599 182.546 154.253 183.424 154.684L185.9 155.912C186.771 156.352 187.103 155.701 186.227 155.259Z" fill="#6F42C1"/>
<path d="M194.127 159.361L191.68 158.06C190.812 157.607 190.475 158.253 191.341 158.705L193.781 160.004C194.641 160.467 194.989 159.825 194.127 159.361" fill="#6F42C1"/>
<path d="M201.91 163.671L199.499 162.307C198.644 161.831 198.287 162.468 199.143 162.943L201.547 164.305C202.395 164.791 202.76 164.157 201.91 163.671" fill="#6F42C1"/>
<path d="M209.615 168.103L207.218 166.725C206.37 166.237 206.005 166.867 206.854 167.357L209.254 168.736C210.103 169.221 210.466 168.587 209.615 168.103" fill="#6F42C1"/>
<path d="M217.381 172.404L214.949 171.095C214.093 170.628 213.737 171.264 214.599 171.736L217.04 173.048C217.907 173.508 218.245 172.861 217.381 172.404" fill="#6F42C1"/>
<path d="M225.337 176.308C224.497 175.933 223.661 175.552 222.833 175.152C221.953 174.736 221.631 175.389 222.52 175.811C223.353 176.212 224.195 176.597 225.039 176.975C225.935 177.377 226.225 176.708 225.337 176.308Z" fill="#6F42C1"/>
<path d="M233.601 179.467L230.993 178.584C230.073 178.271 229.807 178.951 230.741 179.267L233.371 180.159C234.305 180.475 234.523 179.779 233.601 179.467" fill="#6F42C1"/>
<path d="M242.123 181.831L239.45 181.163C238.507 180.927 238.317 181.632 239.273 181.871L241.97 182.544C242.925 182.779 243.069 182.064 242.123 181.831" fill="#6F42C1"/>
<path d="M250.858 183.224L249.484 183.103L248.126 182.884C247.166 182.724 247.051 183.445 248.023 183.607L249.394 183.827L250.778 183.949C251.758 184.036 251.827 183.309 250.858 183.224" fill="#6F42C1"/>
<path d="M259.691 183.732L256.934 183.696C255.962 183.684 255.921 184.412 256.905 184.424L259.683 184.461C260.666 184.475 260.665 183.745 259.691 183.732" fill="#6F42C1"/>
<path d="M268.535 183.429L265.783 183.593C264.812 183.651 264.84 184.38 265.823 184.321L268.595 184.156C269.578 184.097 269.507 183.371 268.535 183.429" fill="#6F42C1"/>
<path d="M277.307 182.264C276.411 182.473 275.499 182.589 274.589 182.703C273.623 182.829 273.719 183.552 274.697 183.424C275.615 183.309 276.534 183.192 277.435 182.983C278.399 182.788 278.262 182.071 277.307 182.264Z" fill="#6F42C1"/>
<path d="M285.935 180.284L283.277 181.019C282.336 181.261 282.499 181.973 283.451 181.727L286.128 180.987C287.076 180.727 286.875 180.025 285.935 180.284Z" fill="#6F42C1"/>
<path d="M294.363 177.581L291.761 178.493C290.843 178.816 291.068 179.511 291.997 179.184L294.617 178.264C295.544 177.939 295.283 177.257 294.363 177.581Z" fill="#6F42C1"/>
<path d="M302.518 174.14C301.709 174.58 300.838 174.885 300.002 175.265C299.109 175.649 299.394 176.32 300.3 175.932C301.142 175.549 302.02 175.241 302.832 174.797C303.706 174.349 303.385 173.695 302.518 174.14" fill="#6F42C1"/>
<path d="M310.308 169.933L307.946 171.356C307.081 171.8 307.426 172.441 308.301 171.992L310.681 170.56C311.522 170.052 311.142 169.429 310.308 169.933" fill="#6F42C1"/>
<path d="M317.705 165.076L315.452 166.661C314.656 167.221 315.057 167.831 315.864 167.264L318.136 165.667C318.938 165.1 318.504 164.516 317.705 165.076" fill="#6F42C1"/>
<path d="M324.645 159.584L322.514 161.332C321.761 161.947 322.217 162.516 322.981 161.893L325.126 160.131C325.841 159.455 325.352 158.913 324.645 159.584" fill="#6F42C1"/>
<path d="M330.991 153.416C330.367 154.087 329.743 154.761 329.073 155.391C328.367 156.06 328.875 156.583 329.592 155.905C330.264 155.271 330.896 154.589 331.527 153.911C332.195 153.187 331.649 152.7 330.991 153.416Z" fill="#6F42C1"/>
<path d="M336.464 146.504C335.962 147.268 335.444 148.023 334.893 148.753C334.314 149.529 334.886 149.983 335.478 149.188C336.037 148.447 336.565 147.679 337.074 146.901C337.605 146.064 336.981 145.687 336.464 146.504" fill="#6F42C1"/>
<path d="M340.22 138.597C339.951 139.467 339.656 140.327 339.304 141.167C338.93 142.052 339.591 142.364 339.979 141.445C340.339 140.584 340.645 139.699 340.922 138.805C341.179 137.841 340.47 137.671 340.22 138.597Z" fill="#6F42C1"/>
<path d="M340.929 129.972L341.092 131.319L341.141 132.672C341.113 133.62 341.841 133.679 341.869 132.672L341.818 131.261L341.65 129.861C341.469 128.873 340.757 129.035 340.929 129.972Z" fill="#6F42C1"/>
<path d="M337.659 121.985C338.203 122.707 338.659 123.489 339.085 124.285C339.495 125.144 340.167 124.86 339.733 123.951C339.291 123.123 338.815 122.308 338.248 121.555C337.967 121.14 337.653 121.069 337.512 121.185C337.371 121.3 337.392 121.589 337.659 121.985" fill="#6F42C1"/>
<path d="M330.822 116.944C331.682 117.189 332.501 117.561 333.284 117.995C334.084 118.489 334.51 117.895 333.645 117.361C332.816 116.901 331.946 116.505 331.032 116.245C330.553 116.075 330.26 116.224 330.22 116.4C330.181 116.58 330.377 116.783 330.822 116.944Z" fill="#6F42C1"/>
<path d="M322.553 117.953C322.919 117.687 323.352 117.556 323.751 117.353C324.148 117.144 324.573 117.013 325.005 116.9C325.9 116.639 325.784 115.915 324.8 116.199C324.337 116.321 323.883 116.464 323.459 116.685C323.036 116.897 322.573 117.043 322.187 117.323C321.327 117.865 321.759 118.456 322.553 117.953" fill="#6F42C1"/>
<path d="M316.945 124.359C317.277 123.521 317.764 122.759 318.241 121.999C318.813 121.247 318.252 120.779 317.64 121.587C317.137 122.384 316.629 123.185 316.277 124.065C315.865 124.991 316.558 125.221 316.945 124.359Z" fill="#6F42C1"/>
<path d="M316.396 132.752L316.055 131.463C315.935 131.033 315.944 130.58 315.88 130.14C315.815 129.673 315.659 129.436 315.479 129.436C315.295 129.435 315.086 129.688 315.154 130.195C315.219 130.665 315.214 131.149 315.34 131.611L315.708 132.995C316.13 133.932 316.782 133.597 316.396 132.752" fill="#6F42C1"/>
<path d="M321.929 139.201C321.166 138.715 320.446 138.168 319.776 137.565C319.085 136.92 318.548 137.419 319.288 138.108C319.99 138.739 320.744 139.309 321.536 139.816C322.39 140.34 322.744 139.7 321.929 139.201Z" fill="#6F42C1"/>
<path d="M330.046 142.347C329.148 142.183 328.272 141.935 327.4 141.679C326.483 141.395 326.231 142.08 327.184 142.376C328.082 142.639 328.982 142.893 329.9 143.061C330.874 143.265 330.987 142.544 330.046 142.347" fill="#6F42C1"/>
<path d="M338.78 142.759C337.874 142.853 336.962 142.901 336.052 142.915C335.092 142.907 335.064 143.636 336.06 143.643C336.992 143.632 337.926 143.581 338.854 143.485C339.841 143.367 339.737 142.644 338.78 142.759" fill="#6F42C1"/>
<path d="M347.264 140.62C346.417 140.956 345.569 141.289 344.693 141.544C343.776 141.836 343.961 142.541 344.91 142.24C345.808 141.979 346.676 141.639 347.542 141.293C348.457 140.904 348.149 140.241 347.264 140.62" fill="#6F42C1"/>
<path d="M354.737 136.087C354.062 136.697 353.303 137.205 352.575 137.753C351.766 138.272 352.15 138.892 352.987 138.353C353.735 137.793 354.513 137.272 355.207 136.644C355.967 136 355.471 135.464 354.737 136.087Z" fill="#6F42C1"/>
<path d="M360.708 129.629C360.154 130.363 359.568 131.067 358.981 131.771C358.36 132.515 358.904 133 359.537 132.241C360.133 131.529 360.726 130.815 361.284 130.077C361.886 129.3 361.305 128.86 360.708 129.629" fill="#6F42C1"/>
<path d="M365.999 122.493L364.351 124.723C363.772 125.512 364.363 125.943 364.939 125.152L366.583 122.933C367.168 122.156 366.592 121.708 365.999 122.493" fill="#6F42C1"/>
<path d="M371.901 115.775C371.188 116.383 370.559 117.071 369.911 117.739C369.237 118.465 369.788 118.945 370.444 118.236C371.08 117.581 371.697 116.905 372.391 116.316C373.103 115.672 372.643 115.107 371.901 115.775Z" fill="#6F42C1"/>
<path d="M379.623 111.215L378.282 111.656L377.002 112.251C376.092 112.677 376.459 113.309 377.32 112.905L378.55 112.335L379.836 111.912C380.739 111.615 380.582 110.901 379.623 111.215" fill="#6F42C1"/>
<path d="M401.713 96.4961C401.013 94.1668 402.333 91.7094 404.662 91.0081C406.992 90.3081 409.521 93.6655 409.033 96.0481C407.713 102.475 408.942 105.24 408.942 105.24C408.942 105.24 402.414 98.8255 401.713 96.4961" fill="#F25A40"/>
<path d="M398.258 99.724C396.635 97.912 396.789 95.128 398.601 93.504C400.413 91.8814 404.127 93.848 404.697 96.2134C406.229 102.591 408.517 104.573 408.517 104.573C408.517 104.573 399.881 101.536 398.258 99.724Z" fill="#FFC107"/>
<path d="M416.771 101.545C413.949 99.3481 411.588 100.336 410.763 102.08C409.557 101.819 407.969 101.876 406.305 102.317C405.035 102.655 403.912 103.164 403.043 103.752C401.268 104.956 399.277 105.804 397.224 106.423L388.507 109.048C387.712 109.259 387.108 109.576 387.317 110.371C387.529 111.165 388.184 111.035 388.979 110.824L397.764 108.869C399.889 108.397 402.071 108.152 404.24 108.325C405.289 108.408 406.523 108.295 407.8 107.956C409.465 107.513 410.872 106.777 411.791 105.952C412.517 106.461 413.448 106.671 414.373 106.425C416.051 105.98 417.828 104.044 417.355 102.369C417.261 102.04 417.04 101.756 416.771 101.545" fill="#FFC107"/>
<path d="M388.506 109.048L388.242 109.125C388.568 109.657 388.784 110.232 388.881 110.849L388.978 110.824L389.772 110.648C389.665 110.015 389.461 109.413 389.148 108.855L388.506 109.048" fill="#F25A40"/>
<path d="M390.877 108.335C391.252 108.919 391.49 109.555 391.584 110.245L392.474 110.047C392.369 109.341 392.142 108.675 391.784 108.061L390.877 108.335" fill="#F25A40"/>
<path d="M393.514 107.54C393.936 108.179 394.203 108.877 394.287 109.643L395.176 109.445C395.075 108.668 394.826 107.935 394.42 107.268L393.514 107.54Z" fill="#F25A40"/>
<path d="M396.148 106.747C396.624 107.437 396.919 108.2 396.988 109.043L397.764 108.869L397.878 108.848C397.783 107.996 397.511 107.196 397.055 106.473L396.148 106.747Z" fill="#F25A40"/>
<path d="M399.615 105.561C399.329 105.68 399.045 105.805 398.756 105.912C399.307 106.665 399.637 107.505 399.693 108.444L399.712 108.517C400.008 108.475 400.305 108.437 400.601 108.404C400.532 107.371 400.204 106.408 399.615 105.561" fill="#F25A40"/>
<path d="M95.837 212.732C95.837 212.732 95.8904 212.819 95.9957 212.996C97.5784 215.641 110.417 237.943 111.97 262.261C111.997 262.673 112.352 262.985 112.764 262.959C113.174 262.932 113.488 262.577 113.461 262.165C111.752 235.745 97.1344 212.003 97.1104 211.951C96.8944 211.599 96.4344 211.489 96.0824 211.705C95.7317 211.921 95.621 212.381 95.837 212.732" fill="#56C49A"/>
<path d="M131.144 228.331C130.033 228.556 128.168 228.403 127.972 226.977C127.683 224.873 130.672 224.009 132.175 224.784C134.213 225.835 132.9 227.975 131.144 228.331V228.331ZM121.148 234.261C118.845 234.525 115.735 233.529 114.48 231.468C113.333 229.585 114.283 227.664 116.183 226.807C118.605 225.712 121.58 226.673 123.16 228.743C124.813 230.907 124.096 233.923 121.148 234.261V234.261ZM119.913 199.989C120.124 199.915 120.371 199.925 120.657 200.061C122.069 200.729 121.845 204.192 120.256 204.552C119.373 204.752 118.971 203.676 118.876 202.999C118.768 202.22 119.016 200.309 119.913 199.989V199.989ZM109.293 217.532C107.54 218.325 105.656 217.947 105.087 216.687C104.516 215.425 105.476 213.761 107.229 212.969C108.983 212.176 110.865 212.555 111.436 213.815C112.005 215.075 111.047 216.74 109.293 217.532V217.532ZM99.8705 196.699C99.1839 197.009 98.4479 196.861 98.2252 196.368C98.0012 195.875 98.3772 195.224 99.0639 194.913C99.7492 194.603 100.485 194.752 100.709 195.245C100.932 195.737 100.557 196.389 99.8705 196.699ZM128.477 218.723C126.665 218.543 125.972 216.267 127.375 215.107L128.699 214.013C132.783 210.637 133.357 204.588 129.981 200.504C126.604 196.42 120.557 195.845 116.472 199.221C115.567 199.969 114.257 199.032 114.671 197.935L114.675 197.924C116.525 193.017 114.275 187.381 109.417 185.403C106.621 184.263 103.62 184.537 101.18 185.876C98.7385 187.216 95.6865 186.315 94.5399 183.777L94.4599 183.6C92.2212 178.651 86.3025 176.523 81.3999 178.984L81.3945 179.001L107.123 235.889L126.583 237.819C131.856 238.343 136.555 234.491 137.079 229.217C137.601 223.944 133.751 219.245 128.477 218.723" fill="#56C49A"/>
<path d="M91.5973 238.795C89.3693 237.955 88.5106 234.76 89.68 231.66C90.8493 228.561 93.6026 226.729 95.8306 227.569C98.0586 228.411 98.9173 231.604 97.7479 234.703C96.5786 237.804 93.8253 239.636 91.5973 238.795ZM87.3426 219.095C85.5893 219.888 83.7053 219.509 83.136 218.249C82.5653 216.988 83.5253 215.324 85.2786 214.531C87.032 213.739 88.9146 214.117 89.4853 215.377C90.0546 216.639 89.096 218.303 87.3426 219.095ZM79.2733 200.817C78.8106 199.253 81.2373 196.491 82.784 197.835C83.7186 198.648 83.2173 200.64 82.388 201.357C81.4573 202.161 79.684 202.203 79.2733 200.817ZM78.1706 201.988C78.0506 202.191 77.828 202.32 77.6013 202.392C77.1853 202.523 76.56 202.543 76.2653 202.161C75.3413 200.967 78.8826 200.491 78.2013 201.932L78.1706 201.988ZM81.3946 179.001L81.3773 178.995C76.2906 181.051 73.9813 186.9 76.22 191.851L76.3 192.028C77.448 194.564 76.108 197.451 73.4906 198.4C70.8746 199.348 68.6866 201.42 67.696 204.273C65.9746 209.228 68.72 214.639 73.6266 216.489L73.6373 216.493C74.7346 216.908 74.5733 218.509 73.4133 218.696C68.1813 219.532 64.6186 224.455 65.456 229.687V229.688C66.2933 234.92 71.2146 238.483 76.4479 237.644L78.144 237.373C79.94 237.087 81.192 239.109 80.1306 240.587C77.04 244.893 78.0266 250.888 82.332 253.977C86.6373 257.068 92.632 256.083 95.7226 251.777L107.123 235.889L81.3946 179.001Z" fill="#43BE8D"/>
<path d="M384.225 218.947C384.203 218.993 371.038 240.376 369.499 264.171C369.475 264.541 369.757 264.861 370.127 264.885C370.498 264.909 370.818 264.628 370.842 264.257C371.591 252.577 375.223 241.411 378.673 233.173C380.397 229.055 382.075 225.668 383.319 223.315C383.942 222.139 384.457 221.219 384.814 220.596C384.994 220.284 385.134 220.047 385.229 219.888C385.324 219.728 385.37 219.651 385.371 219.651C385.565 219.333 385.466 218.92 385.15 218.725C384.834 218.531 384.419 218.629 384.225 218.947" fill="#56C49A"/>
<path d="M352.645 230.504C353.997 229.807 356.691 230.585 356.429 232.479C356.253 233.761 354.575 233.901 353.573 233.697C351.992 233.377 350.809 231.449 352.645 230.504ZM360.763 234.069C362.188 232.204 364.865 231.339 367.048 232.324C368.759 233.096 369.613 234.827 368.581 236.524C367.451 238.379 364.649 239.277 362.576 239.039C359.921 238.735 359.275 236.017 360.763 234.069ZM364.621 210.883C364.536 211.492 364.173 212.463 363.379 212.283C361.948 211.957 361.747 208.839 363.017 208.239C363.275 208.116 363.497 208.105 363.688 208.173C364.496 208.463 364.719 210.181 364.621 210.883V210.883ZM371.323 220.624C371.836 219.489 373.533 219.148 375.111 219.863C376.691 220.577 377.555 222.076 377.041 223.211C376.528 224.345 374.832 224.687 373.253 223.973C371.673 223.257 370.811 221.759 371.323 220.624ZM380.983 203.9C381.184 203.456 381.848 203.321 382.467 203.601C383.084 203.88 383.423 204.468 383.221 204.912C383.02 205.356 382.357 205.489 381.739 205.209C381.121 204.929 380.783 204.344 380.983 203.9ZM348.228 234.496C348.7 239.247 352.931 242.715 357.681 242.244L375.207 240.505L398.379 189.271L398.373 189.255C393.959 187.037 388.628 188.955 386.612 193.413L386.54 193.573C385.507 195.857 382.759 196.669 380.559 195.463C378.363 194.256 375.659 194.009 373.141 195.036C368.765 196.819 366.739 201.893 368.407 206.313L368.409 206.321C368.783 207.311 367.601 208.155 366.787 207.48C363.108 204.44 357.661 204.957 354.62 208.637C351.58 212.315 352.096 217.763 355.776 220.804L356.968 221.789C358.231 222.832 357.605 224.883 355.976 225.044C351.225 225.516 347.759 229.748 348.228 234.496" fill="#56C49A"/>
<path d="M383.65 239.437C382.598 236.645 383.371 233.769 385.378 233.012C387.384 232.255 389.864 233.905 390.918 236.697C391.971 239.488 391.198 242.364 389.191 243.123C387.184 243.879 384.703 242.229 383.65 239.437ZM391.092 222.031C391.606 220.897 393.302 220.556 394.88 221.269C396.46 221.984 397.323 223.483 396.811 224.619C396.298 225.753 394.6 226.093 393.023 225.38C391.443 224.665 390.579 223.167 391.092 222.031ZM397.484 209.405C396.738 208.757 396.286 206.965 397.128 206.233C398.52 205.023 400.706 207.511 400.29 208.92C399.92 210.167 398.322 210.129 397.484 209.405ZM401.256 209.921C400.642 208.625 403.831 209.053 402.999 210.131C402.734 210.473 402.17 210.455 401.795 210.336C401.591 210.272 401.391 210.155 401.282 209.973L401.256 209.921ZM375.207 240.505L385.476 254.813C388.259 258.692 393.656 259.58 397.535 256.797C401.412 254.015 402.3 248.615 399.518 244.737C398.562 243.405 399.688 241.583 401.307 241.841L402.834 242.087C407.546 242.841 411.979 239.632 412.734 234.92C413.488 230.207 410.279 225.775 405.567 225.02C404.523 224.853 404.376 223.411 405.366 223.036L405.374 223.032C409.794 221.365 412.267 216.492 410.716 212.031C409.823 209.461 407.854 207.595 405.498 206.741C403.14 205.887 401.934 203.287 402.967 201.001L403.039 200.843C405.055 196.384 402.976 191.116 398.394 189.264L398.379 189.271L375.207 240.505" fill="#43BE8D"/>
<path d="M393.504 266.755L394.42 262.651L398.524 259.6L403.483 260.941L405.535 263.177L406.731 266.755H393.504" fill="#FFF3CD"/>
<path d="M393.504 266.755L394.42 262.651L398.524 259.6L399.032 261.357L401.999 261.767L400.137 263.176L401.733 264.712L405.535 263.177L406.731 266.755H393.504" fill="#D4CCB7"/>
<path d="M388.902 266.755L389.538 263.901L392.394 261.779L395.844 262.711L397.27 264.267L398.102 266.755H388.902Z" fill="#FFF3CD"/>
<path d="M388.902 266.755L389.538 263.901L392.394 261.779L392.958 263.729L391.592 265.189L394.626 265.333L397.27 264.267L398.102 266.755H388.902Z" fill="#D9D1BA"/>
<path d="M40.5117 266.624L41.897 260.415L48.1064 255.799L55.609 257.827L58.7131 261.211L60.525 266.624H40.5117" fill="#FFF3CD"/>
<path d="M40.5117 266.624L41.897 260.415L48.1064 255.799L48.8757 258.456L53.365 259.077L50.5477 261.208L52.9637 263.532L58.7131 261.211L60.525 266.624H40.5117" fill="#D4CCB7"/>
<path d="M33.5527 266.624L34.5154 262.305L38.8354 259.093L44.0541 260.505L46.2141 262.859L47.4741 266.624H33.5527" fill="#FFF3CD"/>
<path d="M33.5527 266.624L34.5154 262.305L38.8354 259.093L39.6901 262.045L37.6221 264.253L42.2141 264.473L46.2141 262.859L47.4741 266.624H33.5527" fill="#D9D1BA"/>
<path d="M108.58 266.755L109.901 260.831L115.827 256.424L122.985 258.363L125.948 261.589L127.676 266.755H108.58Z" fill="#FFF3CD"/>
<path d="M108.58 266.755L109.901 260.831L115.827 256.424L116.999 260.475L114.163 263.503L120.46 263.805L125.948 261.589L127.676 266.755H108.58" fill="#D9D1BA"/>
<path d="M83.0762 266.755L85.0922 257.715L94.1335 250.992L105.057 253.948L109.578 258.873L112.215 266.755H83.0762Z" fill="#FFF3CD"/>
<path d="M83.0762 266.755L85.0922 257.715L94.1335 250.992L95.2535 254.863L101.789 255.765L97.6882 258.869L101.204 262.253L109.578 258.873L112.215 266.755H83.0762Z" fill="#D4CCB7"/>
<path d="M69.0801 266.755L70.6014 259.935L77.4214 254.864L85.6627 257.093L89.0721 260.809L91.0614 266.755H69.0801" fill="#FFF3CD"/>
<path d="M69.0801 266.755L70.6014 259.935L77.4214 254.864L78.7707 259.525L75.5054 263.012L82.7561 263.36L89.0721 260.809L91.0614 266.755H69.0801" fill="#D9D1BA"/>
<path d="M363.566 266.755L364.821 261.127L370.45 256.94L377.253 258.781L380.066 261.848L381.708 266.755H363.566" fill="#FFF3CD"/>
<path d="M363.566 266.755L364.821 261.127L370.45 256.94L371.149 259.351L375.218 259.913L372.664 261.847L374.854 263.952L380.066 261.848L381.708 266.755H363.566" fill="#D4CCB7"/>
<path d="M357.256 266.755L358.129 262.84L362.044 259.928L366.776 261.208L368.735 263.341L369.876 266.755H357.256Z" fill="#FFF3CD"/>
<path d="M357.256 266.755L358.129 262.84L362.044 259.928L362.818 262.604L360.944 264.605L365.108 264.807L368.735 263.341L369.876 266.755H357.256Z" fill="#D9D1BA"/>
<path d="M418.922 266.755L419.617 263.641L422.73 261.325L426.493 262.344L428.049 264.04L428.958 266.755H418.922" fill="#FFF3CD"/>
<path d="M418.922 266.755L419.617 263.641L422.73 261.325L423.115 262.659L425.368 262.971L423.955 264.039L425.166 265.204L428.049 264.04L428.958 266.755H418.922" fill="#D4CCB7"/>
<path d="M415.432 266.755L415.916 264.589L418.081 262.979L420.698 263.687L421.781 264.867L422.413 266.755H415.432Z" fill="#FFF3CD"/>
<path d="M415.432 266.755L415.916 264.589L418.081 262.979L418.509 264.46L417.473 265.567L419.774 265.677L421.781 264.867L422.413 266.755H415.432Z" fill="#D9D1BA"/>
<path d="M262.209 238.963C262.808 238.908 263.221 238.879 263.221 238.879C263.221 238.879 264.671 238.771 266.145 238.739C267.615 238.7 269.107 238.741 269.107 238.741C269.107 238.741 267.869 237.913 266.572 237.14C265.28 236.364 263.931 235.644 263.931 235.644C263.931 235.644 262.909 235.096 261.721 234.52C261.267 227.08 262.684 219.527 266.027 212.623C266.679 212.769 267.403 212.927 268.127 213.079C270.441 213.564 272.759 213.963 272.759 213.963C272.759 213.963 275.075 214.367 277.389 214.687C279.705 215.012 282.017 215.251 282.017 215.251C282.017 215.251 279.935 214.215 277.904 213.113C275.869 212.015 273.889 210.852 273.889 210.852C273.889 210.852 271.904 209.692 269.976 208.469C269.576 208.217 269.181 207.964 268.803 207.719C269.933 205.989 271.193 204.316 272.595 202.719C277.085 197.604 282.496 193.785 288.361 191.273C289.077 191.967 290.06 192.947 291.007 193.985C292.795 195.925 294.424 198.053 294.424 198.053C294.424 198.053 296.061 200.167 297.521 202.453C298.991 204.727 300.267 207.16 300.267 207.16C300.267 207.16 299.777 204.463 299.035 201.783C298.308 199.104 297.328 196.464 297.328 196.464C297.328 196.464 296.365 193.824 295.148 191.248C294.829 190.56 294.492 189.879 294.169 189.251C299.901 187.696 305.899 187.309 311.784 188.113L312.447 190.088L313.799 194.108L315.748 190.344L316.441 189.004C319.877 189.857 323.239 191.124 326.443 192.823L269.765 257.395C265.805 251.819 263.275 245.496 262.209 238.963" fill="#56C49A"/>
<path d="M289.025 262.497C289.001 261.899 288.977 261.483 288.977 261.483C288.977 261.483 288.896 260.032 288.737 258.568C288.582 257.104 288.349 255.631 288.349 255.631C288.349 255.631 289.332 256.751 290.266 257.936C291.204 259.116 292.092 260.361 292.092 260.361C292.092 260.361 292.766 261.303 293.493 262.407C300.929 261.891 308.236 259.507 314.648 255.297C314.417 254.669 314.166 253.973 313.924 253.275C313.142 251.041 312.445 248.797 312.445 248.797C312.445 248.797 311.744 246.552 311.126 244.297C310.505 242.043 309.968 239.781 309.968 239.781C309.968 239.781 311.264 241.712 312.62 243.584C313.973 245.459 315.382 247.271 315.382 247.271C315.382 247.271 316.792 249.089 318.253 250.844C318.554 251.205 318.857 251.565 319.149 251.909C320.717 250.563 322.213 249.097 323.616 247.5C328.105 242.385 331.19 236.524 332.92 230.383C332.14 229.763 331.04 228.916 329.888 228.111C327.73 226.589 325.41 225.251 325.41 225.251C325.41 225.251 323.101 223.901 320.646 222.751C318.201 221.587 315.622 220.639 315.622 220.639C315.622 220.639 318.362 220.772 321.116 221.163C323.866 221.535 326.609 222.165 326.609 222.165C326.609 222.165 329.353 222.777 332.065 223.648C332.789 223.876 333.506 224.123 334.173 224.361C334.972 218.476 334.574 212.479 333.016 206.749L330.97 206.347L326.81 205.529L330.29 203.107L331.529 202.245C330.237 198.948 328.544 195.78 326.444 192.823L269.768 257.395C275.81 260.6 282.408 262.288 289.025 262.497" fill="#43BE8D"/>
<path d="M253.872 120.641C250.693 120.239 247.434 120.495 244.461 121.656C242.298 122.5 240.633 123.919 239.474 125.931C238.488 127.645 237.884 129.532 237.053 131.319C235.414 134.84 231.148 134.904 228.362 137.128C227.472 137.839 226.721 138.721 226.204 139.74C225.58 140.972 225.528 142.137 225.538 143.484C225.554 145.436 225.209 146.868 223.526 147.995C222.538 148.655 221.56 149.265 220.712 150.003C213.572 155.637 212.589 167.253 220.957 172.713C225.049 175.384 230.673 175.513 234.817 172.888C237.626 171.109 240.433 167.952 241.777 164.507L253.872 120.641" fill="#F25A40"/>
<path d="M250.474 162.055L249.088 161.845C248.721 161.789 248.356 161.744 247.989 161.708C238.998 160.839 230.776 168.223 228.858 176.964C228.716 177.615 220.369 219.087 218.953 230.464C225.848 240.835 263.588 246.753 264.886 244.424C274.302 227.545 266.848 182.707 266.848 182.707C268.045 172.78 261.462 164.241 251.468 162.229C251.138 162.163 250.808 162.104 250.474 162.055" fill="#6F42C1"/>
<path d="M296.212 268.583L282.475 268.205C279.119 268.113 276.672 266.036 276.764 262.681C276.856 259.325 279.634 257.337 282.988 257.428L295.684 257.887C299.039 257.977 302.472 260.028 302.38 263.383C302.288 266.739 299.568 268.675 296.212 268.583" fill="#262544"/>
<path d="M282.364 268.231C279.07 268.14 276.518 265.675 276.6 262.677C276.682 259.693 279.178 257.352 282.549 257.444L295.67 258.237C298.866 258.324 302.114 260.269 302.029 263.373C301.946 266.372 299.613 268.324 296.221 268.232L282.364 268.231" fill="#262544"/>
<path d="M296.002 258.269L295.73 268.217L296.222 268.232C299.614 268.324 301.948 266.372 302.03 263.373C302.113 260.376 299.088 258.477 296.002 258.269" fill="#D4F1F1"/>
<path d="M287.114 259.46C287.124 259.077 287.443 258.775 287.826 258.785C288.208 258.796 288.511 259.115 288.5 259.497C288.49 259.88 288.171 260.183 287.788 260.172C287.406 260.161 287.103 259.843 287.114 259.46Z" fill="#262544"/>
<path d="M289.996 259.537C290.007 259.155 290.326 258.853 290.708 258.864C291.092 258.873 291.394 259.193 291.383 259.576C291.372 259.959 291.054 260.26 290.671 260.251C290.288 260.24 289.986 259.92 289.996 259.537Z" fill="#262544"/>
<path d="M292.879 259.617C292.89 259.235 293.208 258.932 293.592 258.943C293.975 258.953 294.276 259.272 294.266 259.655C294.256 260.037 293.936 260.34 293.554 260.329C293.171 260.319 292.87 260 292.879 259.617Z" fill="#262544"/>
<path d="M286.928 266.209C286.939 265.827 287.259 265.525 287.641 265.535C288.024 265.545 288.325 265.864 288.315 266.248C288.305 266.631 287.985 266.932 287.603 266.921C287.22 266.912 286.919 266.592 286.928 266.209Z" fill="#262544"/>
<path d="M289.813 266.289C289.822 265.907 290.142 265.604 290.525 265.615C290.907 265.625 291.209 265.944 291.199 266.327C291.189 266.709 290.87 267.012 290.486 267.001C290.103 266.991 289.802 266.672 289.813 266.289Z" fill="#262544"/>
<path d="M292.696 266.367C292.705 265.984 293.025 265.683 293.408 265.693C293.79 265.704 294.093 266.023 294.082 266.407C294.072 266.789 293.753 267.089 293.37 267.08C292.986 267.069 292.685 266.751 292.696 266.367Z" fill="#262544"/>
<path d="M290.903 266.465L290.172 266.444L287.449 259.212L288.179 259.233L290.903 266.465" fill="#B1DED3"/>
<path d="M293.826 266.544L293.097 266.525L290.373 259.293L291.104 259.312L293.826 266.544" fill="#B1DED3"/>
<path d="M287.983 266.384L287.254 266.364L287.45 259.212L288.179 259.233L287.983 266.384Z" fill="#D4F1F1"/>
<path d="M290.903 266.465L290.172 266.444L290.369 259.293L291.097 259.312L290.903 266.465Z" fill="#D4F1F1"/>
<path d="M293.821 266.544L293.092 266.525L293.288 259.372L294.017 259.393L293.821 266.544Z" fill="#D4F1F1"/>
<path d="M264.306 265.627L264.677 252.052C264.677 252.052 217.977 221.261 184.783 226.34C182.703 226.659 180.862 227.856 179.689 229.601C177.883 232.285 177.945 235.845 179.939 238.391C186.203 246.38 205.691 261.627 264.306 265.627" fill="#512487"/>
<path d="M269.847 255.261L282.195 259.663C283.566 260.152 284.467 261.468 284.426 262.923C284.375 264.78 282.83 266.244 280.974 266.193L269.775 265.885L269.847 255.261" fill="#FBCBB2"/>
<path d="M269.748 268.187L264.02 268.029L264.486 250.952L270.214 251.108L269.748 268.187Z" fill="#698DD0"/>
<path d="M188.555 268.792L202.26 267.781C205.608 267.533 207.956 265.345 207.71 261.999C207.463 258.651 204.596 256.792 201.25 257.039L188.59 258.084C185.242 258.331 181.907 260.536 182.154 263.884C182.4 267.232 185.207 269.039 188.555 268.792Z" fill="#262544"/>
<path d="M202.373 267.8C205.659 267.557 208.095 264.977 207.873 261.985C207.655 259.009 205.052 256.787 201.689 257.033L188.618 258.432C185.43 258.668 182.276 260.76 182.504 263.859C182.725 266.849 185.147 268.692 188.531 268.443L202.373 267.8" fill="#262544"/>
<path d="M188.289 258.48L189.023 268.407L188.531 268.443C185.147 268.692 182.725 266.849 182.504 263.859C182.284 260.868 185.219 258.831 188.289 258.48" fill="#D4F1F1"/>
<path d="M197.222 259.257C197.196 258.876 196.862 258.589 196.481 258.617C196.097 258.645 195.812 258.977 195.84 259.361C195.868 259.743 196.201 260.029 196.582 260.001C196.965 259.973 197.252 259.641 197.222 259.257" fill="#262544"/>
<path d="M194.346 259.471C194.318 259.088 193.984 258.801 193.603 258.829C193.222 258.859 192.934 259.191 192.963 259.573C192.991 259.955 193.323 260.241 193.704 260.213C194.088 260.185 194.374 259.853 194.346 259.471" fill="#262544"/>
<path d="M191.472 259.683C191.442 259.301 191.111 259.013 190.728 259.041C190.347 259.071 190.06 259.403 190.088 259.784C190.116 260.167 190.448 260.453 190.831 260.425C191.212 260.397 191.498 260.064 191.472 259.683Z" fill="#262544"/>
<path d="M197.72 265.993C197.692 265.611 197.36 265.324 196.977 265.352C196.594 265.38 196.309 265.713 196.336 266.095C196.365 266.476 196.697 266.764 197.08 266.736C197.461 266.707 197.748 266.375 197.72 265.993Z" fill="#262544"/>
<path d="M194.844 266.204C194.816 265.823 194.482 265.536 194.101 265.564C193.718 265.592 193.432 265.924 193.461 266.308C193.488 266.689 193.821 266.976 194.204 266.948C194.585 266.92 194.872 266.587 194.844 266.204Z" fill="#262544"/>
<path d="M191.967 266.417C191.939 266.035 191.605 265.749 191.224 265.776C190.843 265.805 190.555 266.137 190.584 266.52C190.612 266.901 190.944 267.188 191.325 267.16C191.708 267.132 191.995 266.8 191.967 266.417" fill="#262544"/>
<path d="M193.762 266.431L194.49 266.377L196.875 259.028L196.148 259.081L193.762 266.431" fill="#B1DED3"/>
<path d="M190.846 266.645L191.574 266.592L193.959 259.243L193.231 259.297L190.846 266.645Z" fill="#B1DED3"/>
<path d="M196.674 266.216L197.402 266.163L196.875 259.028L196.148 259.081L196.674 266.216Z" fill="#D4F1F1"/>
<path d="M193.761 266.431L194.489 266.377L193.962 259.243L193.234 259.296L193.761 266.431Z" fill="#D4F1F1"/>
<path d="M190.849 266.645L191.577 266.592L191.05 259.457L190.322 259.511L190.849 266.645Z" fill="#D4F1F1"/>
<path d="M220.292 264.364L219.293 250.821C219.293 250.821 263.282 227.309 297.913 221.443C299.985 221.091 301.9 222.776 303.152 224.465C305.08 227.063 305.182 230.621 303.308 233.256C297.421 241.528 278.657 257.659 220.292 264.364" fill="#5E3194"/>
<path d="M214.277 254.265L202.148 259.235C200.8 259.787 199.961 261.141 200.068 262.593C200.204 264.447 201.816 265.837 203.669 265.7L214.841 264.876L214.277 254.265Z" fill="#FBCBB2"/>
<path d="M214.974 267.172L220.689 266.751L219.431 249.713L213.717 250.136L214.974 267.172Z" fill="#AB7EEB"/>
<path d="M252.346 242.424C251.983 241.612 248.621 236.943 247.15 235.621L246.962 235.459C244.362 237.337 241.635 239.044 238.809 240.58L238.701 240.532L238.442 240.432L238.198 240.343L237.922 240.267L237.678 240.205L237.379 240.159L237.141 240.127L236.813 240.113L236.587 240.108C236.463 240.111 236.337 240.127 236.21 240.14L236.017 240.156C235.823 240.185 235.629 240.224 235.43 240.276C234.913 240.415 234.399 240.617 233.919 240.88C233.437 241.141 232.989 241.464 232.602 241.836L232.402 242.08C232.202 242.323 232.042 242.575 231.951 242.84C231.869 243.087 231.827 243.34 231.81 243.6L230.813 244.345C226.837 247.283 234.931 256.395 239.462 253.147L241.441 251.668C241.649 251.528 241.859 251.369 242.067 251.2L242.357 250.984L242.659 250.676C243.25 250.112 243.757 249.487 243.977 248.92C244.182 248.393 244.185 247.84 244.078 247.292C246.938 245.843 249.701 244.216 252.346 242.424" fill="#FBCBB2"/>
<path d="M263.698 169.969L261.322 189.671C266.033 196.924 269.365 204.289 267.961 211.216C267.149 214.428 251.282 228.3 240.658 237.347C242.394 241.764 245.788 244.993 250.392 246.62C260.55 237.545 280.448 223.335 282.57 213.321C285.508 199.461 274.396 181.991 263.698 169.969" fill="#6F42C1"/>
<path d="M261.322 189.671C266.033 196.924 269.365 204.289 267.961 211.216C267.149 214.428 251.282 228.3 240.658 237.347C240.658 237.347 267.551 220.216 269.674 210.203C270.883 199.767 261.322 189.671 261.322 189.671" fill="#DC3545"/>
<path d="M264.537 139.695C266.78 131.56 262.088 123.152 254.035 120.764C245.723 118.301 236.955 123.412 234.649 131.769C233.835 134.723 232.872 138.215 231.941 141.591C229.86 149.141 234.293 156.951 241.844 159.032L242.399 159.185L240.927 164.528C239.9 168.249 242.085 172.096 245.805 173.123C249.527 174.148 253.373 171.964 254.4 168.244L256.907 159.152C258.449 153.556 260.448 148.071 263.219 142.969C263.771 141.953 264.216 140.859 264.537 139.695Z" fill="#FBCBB2"/>
<path d="M245.27 149.287C245.676 147.813 247.202 146.948 248.675 147.355C250.148 147.76 251.014 149.285 250.607 150.759C250.202 152.232 248.678 153.097 247.203 152.692C245.73 152.285 244.864 150.761 245.27 149.287" fill="#F8A3A2"/>
<path d="M274.259 165.067C273.911 163.999 273.381 162.975 272.872 161.9C272.004 160.071 272.443 158.663 273.457 156.996C274.156 155.845 274.708 154.819 274.804 153.439C275.019 150.323 273.175 148.117 271.517 145.707C268.689 141.593 271.153 136.979 270.448 132.403C269.176 124.151 258.833 118.901 251.237 118.476C243.087 118.019 235.599 123.617 233.443 131.436L232.588 134.54L255.199 140.753C255.203 140.76 255.439 140.832 255.845 140.951L248.739 166.725C248.127 170.371 248.919 174.523 250.419 177.488C252.632 181.865 257.527 184.639 262.411 184.443C272.393 184.043 277.504 173.564 274.259 165.067" fill="#F25A40"/>
<path d="M208.097 134.156C207.361 135.772 205.634 142.012 205.111 143.376C207.369 144.443 209.739 145.196 212.158 145.796C214.581 143.401 216.726 140.547 218.927 137.939C215.269 136.835 211.671 135.532 208.097 134.156" fill="#FBCBB2"/>
<path d="M215.048 145.101C211.895 150.009 201.013 171.188 201.788 176.708C202.573 182.3 208.968 182.505 213.775 180.827C217.24 179.617 231.912 169.963 234.22 167.048L227.108 191.271C226.531 192.072 217.065 196.68 210.441 196.827C204.843 196.951 199.197 195.107 194.887 191.497C189.9 187.32 188.581 181.685 189.353 175.375C190.048 169.7 192.063 164.267 194.363 159.067C196.944 153.229 200.105 147.691 203.432 142.255L204.268 140.887L215.048 145.101" fill="#6F42C1"/>
<path d="M244.52 143.263C244.371 139.839 240.064 137.679 237.576 140.431C237.216 140.829 237.885 141.323 238.243 140.929C240.313 138.639 243.585 140.793 243.699 143.392C243.721 143.927 244.543 143.793 244.52 143.263Z" fill="#212529"/>
<path d="M214.523 121.395L236.773 134.271C238.236 135.116 239.277 136.613 239.352 138.3C239.368 138.66 239.347 139.04 239.273 139.437C238.761 142.235 235.831 143.908 233.059 143.276L210.219 138.064L214.523 121.395Z" fill="#FFC107"/>
<path d="M217.58 131.992C215.819 136.497 211.595 139.056 208.148 137.708C204.699 136.36 203.329 131.615 205.091 127.111C206.852 122.607 211.075 120.048 214.524 121.395C217.972 122.744 219.34 127.488 217.58 131.992Z" fill="white"/>
<path d="M208.622 136.489C205.852 135.407 204.814 131.412 206.309 127.587C207.805 123.761 211.275 121.531 214.046 122.615C216.817 123.697 217.857 127.691 216.361 131.516C214.866 135.341 211.394 137.572 208.622 136.489" fill="#8DC1E3"/>
<path d="M208.964 136.416C206.343 135.391 205.378 131.568 206.815 127.896C208.25 124.224 211.549 122.069 214.171 123.095C216.793 124.119 217.759 127.94 216.322 131.613C214.887 135.285 211.586 137.44 208.964 136.416" fill="#9FCAE7"/>
<path d="M212.151 122.932C211.635 123.012 211.116 123.167 210.613 123.423L215.127 133.731C215.501 133.232 215.821 132.661 216.104 132.057C214.8 129.009 213.457 125.979 212.151 122.932" fill="#A9CFEA"/>
<path d="M212.315 136.04C213.042 135.72 213.749 135.233 214.382 134.595L209.731 123.975C209.047 124.477 208.426 125.149 207.889 125.935C209.365 129.303 210.839 132.671 212.315 136.04" fill="#A9CFEA"/>
<path d="M230.17 127.721C226.623 120.444 218.785 121.44 217.33 122.463C219.709 123.861 220.457 125.641 220.862 127.756C220.999 128.476 221.822 128.803 222.413 128.363C224.09 127.112 226.017 126.672 228.057 127.184C228.839 127.38 230.566 128.535 230.17 127.721Z" fill="#FBCBB2"/>
<path d="M225.792 125.801L248.044 138.676C249.507 139.523 250.547 141.019 250.623 142.705C250.639 143.065 250.616 143.445 250.544 143.843C250.034 146.64 247.1 148.313 244.328 147.681L221.488 142.469L225.792 125.801" fill="#FFC107"/>
<path d="M228.848 136.397C227.088 140.903 222.866 143.461 219.416 142.113C215.968 140.765 214.599 136.021 216.36 131.516C218.12 127.012 222.344 124.453 225.792 125.801C229.242 127.149 230.61 131.893 228.848 136.397" fill="white"/>
<path d="M219.892 140.895C217.122 139.812 216.083 135.817 217.579 131.992C219.074 128.167 222.544 125.936 225.316 127.02C228.088 128.103 229.126 132.096 227.631 135.921C226.135 139.747 222.663 141.977 219.892 140.895" fill="#8DC1E3"/>
<path d="M220.286 140.593C217.673 139.572 216.694 135.805 218.104 132.197C219.514 128.589 222.788 126.487 225.401 127.508C228.014 128.529 228.993 132.296 227.584 135.904C226.173 139.511 222.9 141.615 220.286 140.593Z" fill="#9FCAE7"/>
<path d="M212.315 136.04C213.042 135.72 213.749 135.233 214.382 134.595L209.731 123.975C209.047 124.477 208.426 125.149 207.889 125.935C209.365 129.303 210.839 132.671 212.315 136.04" fill="#A9CFEA"/>
<path d="M212.151 122.932C211.635 123.012 211.116 123.167 210.613 123.423L215.127 133.731C215.501 133.232 215.821 132.661 216.104 132.057C214.8 129.009 213.457 125.979 212.151 122.932" fill="#A9CFEA"/>
<path d="M218.203 132.093L218.15 132.216C217.914 132.823 217.75 133.432 217.645 134.033C218.615 136.251 219.586 138.465 220.555 140.681C221.035 140.836 221.535 140.888 222.038 140.849L218.203 132.093" fill="#A9CFEA"/>
<path d="M223.146 127.387C222.626 127.503 222.107 127.709 221.607 127.999L226.171 138.423C226.577 137.929 226.939 137.369 227.25 136.759L223.146 127.387Z" fill="#A9CFEA"/>
<path d="M220.745 128.596C220.01 129.192 219.336 129.956 218.797 130.881C220.222 134.136 221.648 137.391 223.073 140.644C223.888 140.387 224.684 139.895 225.404 139.232L220.745 128.596" fill="#A9CFEA"/>
</svg>
