<svg width="96" height="19" viewBox="0 0 96 19" fill="none" xmlns="http://www.w3.org/2000/svg">
<g clip-path="url(#clip0_806_1266)">
<path d="M14.8159 14.328L15.7279 17.352C15.3759 17.624 14.9199 17.84 14.3599 18C13.8159 18.16 13.2559 18.24 12.6799 18.24C11.6399 18.24 10.7279 18.032 9.94391 17.616C9.15991 17.184 8.51191 16.56 7.99991 15.744L5.95991 12.48C5.71991 12.096 5.47991 11.832 5.23991 11.688C5.01591 11.528 4.75191 11.44 4.44791 11.424V18H0.60791V0.959989H6.19991C8.55191 0.959989 10.3119 1.43199 11.4799 2.37599C12.6639 3.31999 13.2559 4.62399 13.2559 6.28799C13.2559 7.59999 12.8479 8.67199 12.0319 9.50399C11.2319 10.336 10.1999 10.88 8.93591 11.136C9.46391 11.392 9.92791 11.816 10.3279 12.408L11.1439 13.656C11.6559 14.424 12.3279 14.808 13.1599 14.808C13.4639 14.808 13.7519 14.776 14.0239 14.712C14.2959 14.632 14.5599 14.504 14.8159 14.328ZM5.98391 4.15199H4.44791V8.37599H5.95991C7.15991 8.37599 8.02391 8.20799 8.55191 7.87199C9.07991 7.51999 9.34391 6.97599 9.34391 6.23999C9.34391 5.50399 9.04791 4.97599 8.45591 4.65599C7.86391 4.31999 7.03991 4.15199 5.98391 4.15199ZM21.3527 18.24C19.9927 18.24 18.8167 17.992 17.8247 17.496C16.8327 16.984 16.0647 16.272 15.5207 15.36C14.9767 14.432 14.7047 13.336 14.7047 12.072C14.7047 10.792 14.9767 9.66399 15.5207 8.68799C16.0807 7.71199 16.8247 6.95199 17.7527 6.40799C18.6967 5.86399 19.7607 5.59199 20.9447 5.59199C22.2887 5.59199 23.3847 5.89599 24.2327 6.50399C25.0807 7.11199 25.6647 7.97599 25.9847 9.09599C26.3207 10.2 26.3927 11.488 26.2007 12.96H18.4487C18.5447 13.568 18.8647 14.08 19.4087 14.496C19.9527 14.896 20.6967 15.096 21.6407 15.096C22.0727 15.096 22.5287 15.008 23.0087 14.832C23.4887 14.64 23.8967 14.36 24.2327 13.992L26.2727 16.152C25.7447 16.792 25.0887 17.304 24.3047 17.688C23.5367 18.056 22.5527 18.24 21.3527 18.24ZM21.0167 8.25599C20.3767 8.25599 19.8327 8.44799 19.3847 8.83199C18.9527 9.21599 18.6647 9.75199 18.5207 10.44H23.1047C23.1207 9.68799 22.9367 9.13599 22.5527 8.78399C22.1847 8.43199 21.6727 8.25599 21.0167 8.25599ZM39.7337 5.83199V18H36.0377L36.1577 16.176C35.2777 17.552 33.9737 18.24 32.2457 18.24C31.1577 18.24 30.2297 17.992 29.4617 17.496C28.6937 17 28.1097 16.312 27.7097 15.432C27.3097 14.552 27.1097 13.544 27.1097 12.408C27.1097 11.048 27.3897 9.85599 27.9497 8.83199C28.5097 7.80799 29.2617 7.01599 30.2057 6.45599C31.1497 5.87999 32.2057 5.59199 33.3737 5.59199C34.1417 5.59199 34.8217 5.75199 35.4137 6.07199C36.0057 6.37599 36.4617 6.78399 36.7817 7.29599L37.0937 5.83199H39.7337ZM33.7337 8.78399C32.8537 8.78399 32.1577 9.11199 31.6457 9.76799C31.1497 10.424 30.9017 11.264 30.9017 12.288C30.9017 13.168 31.0937 13.848 31.4777 14.328C31.8777 14.808 32.4137 15.048 33.0857 15.048C33.9017 15.048 34.5977 14.712 35.1737 14.04C35.7657 13.368 36.0617 12.488 36.0617 11.4C36.0617 10.584 35.8537 9.94399 35.4377 9.47999C35.0217 9.01599 34.4537 8.78399 33.7337 8.78399ZM45.6897 18.24C44.4577 18.24 43.5057 17.904 42.8337 17.232C42.1777 16.544 41.8497 15.552 41.8497 14.256V0.23999H45.5217V13.992C45.5217 14.728 45.8657 15.096 46.5537 15.096C46.9217 15.096 47.2337 15.008 47.4897 14.832L48.3777 17.448C48.1057 17.672 47.7297 17.856 47.2497 18C46.7697 18.16 46.2497 18.24 45.6897 18.24ZM67.9279 0.959989H71.6239L66.7039 18H62.2639L59.4559 5.90399L56.0959 18H51.6319L47.3839 0.959989H51.3439L54.1039 12.792L57.3679 0.959989H62.0239L64.6879 12.744L67.9279 0.959989ZM77.2305 18.24C75.8705 18.24 74.6945 17.992 73.7025 17.496C72.7105 16.984 71.9425 16.272 71.3985 15.36C70.8545 14.432 70.5825 13.336 70.5825 12.072C70.5825 10.792 70.8545 9.66399 71.3985 8.68799C71.9585 7.71199 72.7025 6.95199 73.6305 6.40799C74.5745 5.86399 75.6385 5.59199 76.8225 5.59199C78.1665 5.59199 79.2625 5.89599 80.1105 6.50399C80.9585 7.11199 81.5425 7.97599 81.8625 9.09599C82.1985 10.2 82.2705 11.488 82.0785 12.96H74.3265C74.4225 13.568 74.7425 14.08 75.2865 14.496C75.8305 14.896 76.5745 15.096 77.5185 15.096C77.9505 15.096 78.4065 15.008 78.8865 14.832C79.3665 14.64 79.7745 14.36 80.1105 13.992L82.1505 16.152C81.6225 16.792 80.9665 17.304 80.1825 17.688C79.4145 18.056 78.4305 18.24 77.2305 18.24ZM76.8945 8.25599C76.2545 8.25599 75.7105 8.44799 75.2625 8.83199C74.8305 9.21599 74.5425 9.75199 74.3985 10.44H78.9825C78.9985 9.68799 78.8145 9.13599 78.4305 8.78399C78.0625 8.43199 77.5505 8.25599 76.8945 8.25599ZM95.6115 0.23999V18H91.9155L92.0355 16.2C91.1555 17.56 89.8515 18.24 88.1235 18.24C87.0355 18.24 86.1075 17.992 85.3395 17.496C84.5715 17 83.9875 16.312 83.5875 15.432C83.1875 14.552 82.9875 13.544 82.9875 12.408C82.9875 11.048 83.2675 9.85599 83.8275 8.83199C84.3875 7.80799 85.1395 7.01599 86.0835 6.45599C87.0275 5.87999 88.0835 5.59199 89.2515 5.59199C89.7955 5.59199 90.2995 5.67199 90.7635 5.83199C91.2275 5.99199 91.6275 6.21599 91.9635 6.50399L91.9395 5.78399V0.23999H95.6115ZM89.6115 8.78399C88.7315 8.78399 88.0355 9.11199 87.5235 9.76799C87.0275 10.424 86.7795 11.264 86.7795 12.288C86.7795 13.168 86.9715 13.848 87.3555 14.328C87.7555 14.808 88.2915 15.048 88.9635 15.048C89.7795 15.048 90.4755 14.712 91.0515 14.04C91.6435 13.368 91.9395 12.488 91.9395 11.4C91.9395 10.584 91.7315 9.94399 91.3155 9.47999C90.8995 9.01599 90.3315 8.78399 89.6115 8.78399Z" fill="#6F42C1"/>
</g>
<defs>
<clipPath id="clip0_806_1266">
<rect width="96" height="19" fill="white"/>
</clipPath>
</defs>
</svg>
